<svg width="135" height="136" viewBox="0 0 135 136" fill="none" xmlns="http://www.w3.org/2000/svg">
<circle cx="67.5" cy="68" r="67.5" fill="#7BC1B7"/>
<path d="M110.543 60.3687C112.479 61.0539 113.492 63.1748 112.807 65.1112L112.814 65.106L107.948 78.8884C107.046 81.4323 105.355 83.6245 103.125 85.138L78.4769 101.865C77.1157 102.789 75.2696 102.435 74.3459 101.074L71.0057 96.1521C70.082 94.7909 70.4354 92.9448 71.7966 92.0211L74.6267 90.1005L76.2008 84.9886C77.0019 82.412 78.6539 80.1789 80.8918 78.6602L93.0657 70.3986C94.4269 69.4748 96.273 69.8282 97.1967 71.1894C98.1205 72.5506 97.7671 74.3966 96.4059 75.3204L90.2535 79.4956C89.5768 79.9548 89.3988 80.8843 89.8581 81.5611C90.3174 82.2378 91.2469 82.4158 91.9236 81.9565L101.198 75.6624L105.8 62.6324C106.486 60.696 108.607 59.6835 110.543 60.3687Z" fill="white"/>
<path d="M23.2473 60.3687C21.3108 61.0539 20.2983 63.1748 20.9835 65.1112L20.9759 65.106L25.8426 78.8883C26.7445 81.4323 28.4355 83.6245 30.6657 85.138L55.3134 101.865C56.6746 102.789 58.5207 102.435 59.4444 101.074L62.7846 96.1521C63.7083 94.7909 63.3549 92.9448 61.9937 92.0211L59.1636 90.1005L57.5895 84.9886C56.7884 82.412 55.1364 80.1789 52.8985 78.6601L40.7246 70.3985C39.3634 69.4748 37.5173 69.8282 36.5936 71.1894C35.6698 72.5506 36.0232 74.3966 37.3844 75.3204L43.5368 79.4956C44.2135 79.9548 44.3915 80.8843 43.9322 81.5611C43.4729 82.2378 42.5434 82.4157 41.8667 81.9565L32.5921 75.6624L27.9898 62.6324C27.3046 60.696 25.1837 59.6835 23.2473 60.3687Z" fill="white"/>
<path fill-rule="evenodd" clip-rule="evenodd" d="M86.4232 38.827C87.8032 40.2543 88.9067 41.9525 89.6721 43.8265C90.4658 45.7769 90.8711 47.8479 90.8654 49.9794C90.8654 51.9901 90.4772 54.0854 89.7063 56.2168C89.0669 57.9981 88.1362 59.8457 86.9542 61.7115C85.0814 64.6642 82.5063 67.7436 79.3088 70.8654C74.0044 76.0401 68.7628 79.6086 68.5402 79.7596L67.1869 80.6774C66.5874 81.0819 65.8166 81.0819 65.2171 80.6774L63.8638 79.7596C63.6412 79.6146 58.3939 76.0401 53.0952 70.8654C49.8977 67.7436 47.3226 64.6642 45.4498 61.7115C44.2679 59.8457 43.3429 57.9981 42.6977 56.2168C41.9268 54.0854 41.5386 51.9901 41.5386 49.9794C41.5386 47.8479 41.944 45.7769 42.7376 43.8265C43.5009 41.9513 44.6047 40.2527 45.9865 38.827C47.374 37.3899 48.9898 36.2607 50.7827 35.4758C52.6384 34.6606 54.6026 34.25 56.6295 34.25C59.4445 34.25 62.1909 35.0652 64.5776 36.6049C65.1486 36.9732 65.691 37.3778 66.2049 37.8186C66.7187 37.3778 67.2612 36.9732 67.8322 36.6049C70.2188 35.0652 72.9653 34.25 75.7802 34.25C77.7866 34.2452 79.774 34.6618 81.627 35.4758C83.414 36.2577 85.0422 37.3953 86.4232 38.827ZM65.6969 58.7881V64.7843H68.6729V58.7881H74.6692V55.8121H68.6729V49.8269H65.6969V55.8121H59.7118V58.7881H65.6969Z" fill="white"/>
</svg>
